<?xml version="1.0" encoding="UTF-8"?>
<svg xmlns="http://www.w3.org/2000/svg"
 width="1143.000000pt" height="455.000000pt" viewBox="0 0 1143.000000 455.000000"
 preserveAspectRatio="xMidYMid meet">
<metadata>
Created by potrace 1.16, written by Peter Selinger 2001-2019
</metadata>
<g transform="translate(0.000000,455.000000) scale(0.100000,-0.100000)"
fill="#000000" stroke="none">
<g>
<path d="M490 4230 c0 -21 -4 -119 -10 -217 -5 -98 -14 -268 -20 -378 -14
-261 -25 -473 -55 -1020 -14 -247 -29 -547 -35 -665 -5 -118 -19 -388 -30
-600 -40 -740 -57 -1095 -55 -1098 1 -2 94 4 206 13 112 9 290 22 394 30 105
8 276 21 380 30 105 8 330 26 500 40 171 14 447 36 615 50 168 14 317 26 332
27 15 1 25 5 22 9 -2 4 -55 43 -117 86 -61 44 -192 137 -290 207 l-178 128
-237 -21 c-130 -11 -302 -25 -382 -31 -80 -6 -177 -13 -217 -16 l-72 -7 6
1224 c3 673 7 1226 9 1228 2 2 47 -8 101 -22 54 -14 159 -42 233 -61 74 -19
200 -53 280 -75 80 -22 249 -69 376 -103 l231 -63 7 -1040 c4 -572 9 -1047 12
-1055 2 -8 23 -28 47 -45 23 -16 67 -49 97 -72 30 -24 116 -88 190 -144 l135
-100 110 6 c61 3 130 8 154 12 l44 6 -7 111 c-4 61 -18 289 -31 506 -14 217
-37 575 -50 795 -89 1420 -94 1498 -98 1501 -8 6 -2575 864 -2588 864 -5 0 -9
-18 -9 -40z"/>
</g>
<g>
<path d="M8765 3236 c-160 -31 -272 -101 -335 -212 -57 -98 -60 -130 -60 -565
0 -218 4 -419 10 -448 24 -129 109 -236 233 -295 127 -60 134 -61 767 -61 638
0 673 3 790 61 124 62 203 171 231 318 12 65 12 765 -1 841 -20 120 -103 241
-210 301 -24 14 -76 35 -114 46 -69 21 -90 22 -656 24 -452 2 -601 0 -655 -10z
m1117 -384 c20 -13 47 -40 60 -60 23 -37 23 -41 23 -343 l0 -305 -28 -43 c-19
-28 -44 -50 -75 -64 -46 -21 -58 -22 -462 -22 -228 0 -432 4 -453 8 -50 11
-114 69 -127 115 -6 21 -10 155 -10 312 1 339 8 366 105 411 37 18 69 19 485
16 445 -2 445 -2 482 -25z"/>
</g>
<g>
<path d="M4279 3193 c-14 -27 -63 -120 -109 -208 -45 -88 -86 -164 -90 -170
-4 -5 -42 -77 -85 -160 -43 -82 -90 -172 -105 -200 -39 -71 -122 -230 -235
-450 -54 -104 -115 -223 -137 -263 -21 -40 -38 -75 -38 -78 0 -2 104 -3 231
-2 l231 3 70 138 69 137 459 0 459 0 72 -140 72 -140 228 0 c126 0 229 2 229
5 0 13 -192 385 -458 885 -97 183 -132 251 -218 415 -48 94 -100 193 -115 220
l-28 50 -238 3 -238 2 -26 -47z m356 -540 c49 -93 110 -209 137 -259 26 -50
48 -94 48 -98 0 -3 -126 -6 -281 -6 -154 0 -279 4 -277 9 12 32 274 520 279
521 4 0 46 -75 94 -167z"/>
</g>
<g>
<path d="M5750 2450 l0 -790 220 0 220 0 2 506 3 507 120 -135 c66 -74 161
-181 211 -239 50 -57 108 -122 127 -144 20 -22 92 -104 159 -182 68 -78 126
-141 129 -140 4 1 122 135 264 297 364 418 467 535 474 537 3 2 7 -216 8 -485
1 -268 2 -495 3 -504 0 -17 17 -18 220 -18 l220 0 0 790 0 790 -248 0 -248 0
-50 -57 c-28 -32 -73 -85 -101 -118 -28 -33 -93 -110 -144 -171 -52 -61 -154
-183 -228 -270 -190 -225 -163 -206 -209 -153 -21 24 -97 114 -167 199 -71 85
-209 248 -308 363 l-178 207 -250 0 -249 0 0 -790z"/>
</g>
<g>
<path d="M10680 2450 l0 -790 215 0 215 0 0 790 0 790 -215 0 -215 0 0 -790z"/>
</g>
<g>
<path d="M3487 1373 c-4 -3 -7 -19 -7 -35 l0 -28 3815 0 3815 0 0 29 c0 17 -6
31 -16 35 -22 8 -7599 7 -7607 -1z"/>
</g>
<g>
<path d="M5660 895 c0 -158 1 -165 20 -165 19 0 20 7 20 165 0 158 -1 165 -20
165 -19 0 -20 -7 -20 -165z"/>
</g>
<g>
<path d="M9480 895 l0 -165 25 0 25 0 0 165 0 165 -25 0 -25 0 0 -165z"/>
</g>
<g>
<path d="M4135 1026 c-52 -23 -69 -51 -72 -119 -4 -72 8 -102 56 -134 59 -40
146 -22 176 36 15 31 15 31 -12 42 -20 8 -29 7 -32 -2 -12 -38 -67 -61 -97
-41 -39 26 -47 129 -12 162 28 25 62 26 88 0 21 -21 70 -28 70 -9 0 24 -24 52
-55 65 -42 17 -71 17 -110 0z"/>
</g>
<g>
<path d="M10560 1027 c-105 -36 -108 -219 -5 -263 103 -43 195 19 195 131 0
62 -25 106 -73 128 -41 20 -68 21 -117 4z m104 -58 c22 -17 26 -28 26 -70 0
-40 -5 -55 -25 -74 -53 -53 -125 -13 -125 70 0 81 65 120 124 74z"/>
</g>
<g>
<path d="M3750 1005 c-5 -13 -26 -64 -46 -112 -60 -145 -58 -133 -23 -133 25
0 33 6 42 30 11 29 14 30 70 30 56 0 58 -1 68 -30 9 -24 17 -30 40 -30 16 0
29 3 29 7 0 4 -23 65 -52 135 l-51 128 -34 0 c-26 0 -35 -5 -43 -25z m79 -127
c1 -5 -15 -8 -34 -8 -34 0 -35 1 -29 28 4 15 11 36 17 47 9 18 12 16 28 -20
10 -22 18 -43 18 -47z"/>
</g>
<g>
<path d="M4460 894 l0 -135 27 3 27 3 0 132 1 133 -27 0 -28 0 0 -136z"/>
</g>
<g>
<path d="M4670 895 l0 -135 110 0 c103 0 110 1 110 20 0 18 -7 20 -80 20 l-80
0 0 40 0 40 70 0 c68 0 70 1 70 25 0 14 -3 24 -7 24 -5 -1 -36 -1 -71 0 -63 1
-63 1 -60 29 3 26 5 27 76 30 64 3 72 5 72 22 0 19 -7 20 -105 20 l-105 0 0
-135z"/>
</g>
<g>
<path d="M5040 895 l0 -135 30 0 c30 0 30 1 30 55 0 52 1 55 25 55 19 0 33
-13 61 -54 30 -45 41 -55 70 -58 19 -2 34 -1 34 2 0 14 -61 101 -75 106 -11 5
-7 12 18 28 41 28 49 79 17 114 -19 20 -30 22 -115 22 l-95 0 0 -135z m163 74
c20 -32 1 -49 -53 -49 l-50 0 0 36 0 36 46 -4 c29 -2 51 -9 57 -19z"/>
</g>
<g>
<path d="M6128 895 l-56 -135 33 0 c28 0 35 5 44 30 10 29 12 30 70 30 58 0
60 -1 66 -30 6 -26 11 -30 40 -30 l34 0 -23 58 c-81 204 -86 212 -120 212 -32
0 -33 -1 -88 -135z m116 -2 c7 -21 4 -23 -29 -23 -31 0 -36 3 -30 18 4 9 12
30 17 46 l11 29 12 -24 c7 -13 16 -34 19 -46z"/>
</g>
<g>
<path d="M6491 895 l-2 -135 105 0 c99 0 106 1 106 20 0 17 -8 19 -72 22 l-73
3 -3 113 -3 112 -28 0 -28 0 -2 -135z"/>
</g>
<g>
<path d="M6830 934 c0 -118 15 -158 67 -175 52 -17 113 -6 140 26 21 24 23 36
23 136 l0 109 -30 0 -30 0 0 -103 c0 -111 -6 -127 -50 -127 -48 0 -60 26 -60
133 l0 97 -30 0 -30 0 0 -96z"/>
</g>
<g>
<path d="M7220 895 l0 -135 30 0 30 0 1 98 1 97 25 -97 c25 -95 26 -98 54 -98
30 0 29 -4 61 125 20 82 28 74 28 -28 0 -97 0 -97 25 -97 l25 0 0 135 0 135
-44 0 -43 0 -23 -85 c-13 -47 -24 -85 -26 -85 -1 0 -14 38 -29 85 l-26 85 -44
0 -45 0 0 -135z"/>
</g>
<g>
<path d="M7660 895 l0 -135 30 0 30 0 0 135 0 135 -30 0 -30 0 0 -135z"/>
</g>
<g>
<path d="M7877 1023 c-4 -3 -7 -64 -7 -135 l0 -128 30 0 29 0 3 86 3 85 51
-83 c44 -73 54 -83 82 -86 l32 -3 0 135 0 136 -25 0 c-24 0 -24 -2 -27 -87
l-3 -88 -55 87 c-46 73 -59 88 -81 88 -14 0 -29 -3 -32 -7z"/>
</g>
<g>
<path d="M8260 895 l0 -135 30 0 30 0 0 135 0 135 -30 0 -30 0 0 -135z"/>
</g>
<g>
<path d="M8480 921 c0 -102 2 -112 24 -138 22 -25 31 -28 84 -28 49 0 65 4 85
23 32 30 38 61 30 166 -6 81 -7 86 -29 86 -21 0 -22 -4 -26 -105 -3 -114 -8
-125 -58 -125 -44 0 -50 16 -50 127 l0 103 -30 0 -30 0 0 -109z"/>
</g>
<g>
<path d="M8860 895 l0 -135 30 0 29 0 3 98 3 97 24 -97 c23 -95 25 -98 52 -98
25 0 29 5 43 53 8 28 18 69 21 90 13 71 25 48 25 -47 0 -96 0 -96 25 -96 l25
0 0 135 0 135 -44 0 -43 0 -23 -85 c-13 -47 -24 -85 -26 -85 -1 0 -14 38 -29
85 l-26 85 -44 0 -45 0 0 -135z"/>
</g>
<g>
<path d="M9880 895 l0 -135 30 0 30 0 0 135 0 135 -30 0 -30 0 0 -135z"/>
</g>
<g>
<path d="M10100 891 l0 -138 25 4 c23 5 24 9 27 92 l3 86 55 -87 c51 -81 58
-88 88 -88 l32 0 0 135 0 135 -30 0 -30 0 0 -87 0 -88 -56 88 c-49 77 -59 87
-85 87 l-29 0 0 -139z"/>
</g>
<g>
<path d="M10896 1003 c9 -16 28 -45 42 -65 l24 -37 -39 -58 c-59 -88 -58 -83
-20 -83 30 0 39 6 64 46 l30 45 31 -49 c29 -43 35 -48 62 -44 16 2 30 7 30 9
0 3 -20 34 -45 70 l-45 64 45 65 45 64 -35 0 c-30 0 -38 -6 -61 -41 l-26 -42
-25 42 c-21 36 -29 41 -60 41 l-35 0 18 -27z"/>
</g>
</g>
</svg>
